0
SECTION
2
ENTITIES
0
LINE
8
PERFIL
10
215.513695
20
148.500000
30
0.0
11
214.775000
21
149.779457
31
0.0
0
LINE
8
PERFIL
10
214.775000
20
149.779457
30
0.0
11
214.775000
21
151.256848
31
0.0
0
LINE
8
PERFIL
10
214.775000
20
151.256848
30
0.0
11
213.495543
21
151.995543
31
0.0
0
LINE
8
PERFIL
10
213.495543
20
151.995543
30
0.0
11
212.756848
21
153.275000
31
0.0
0
LINE
8
PERFIL
10
212.756848
20
153.275000
30
0.0
11
211.279457
21
153.275000
31
0.0
0
LINE
8
PERFIL
10
211.279457
20
153.275000
30
0.0
11
210.000000
21
154.013695
31
0.0
0
LINE
8
PERFIL
10
210.000000
20
154.013695
30
0.0
11
208.720543
21
153.275000
31
0.0
0
LINE
8
PERFIL
10
208.720543
20
153.275000
30
0.0
11
207.243152
21
153.275000
31
0.0
0
LINE
8
PERFIL
10
207.243152
20
153.275000
30
0.0
11
206.504457
21
151.995543
31
0.0
0
LINE
8
PERFIL
10
206.504457
20
151.995543
30
0.0
11
205.225000
21
151.256848
31
0.0
0
LINE
8
PERFIL
10
205.225000
20
151.256848
30
0.0
11
205.225000
21
149.779457
31
0.0
0
LINE
8
PERFIL
10
205.225000
20
149.779457
30
0.0
11
204.486305
21
148.500000
31
0.0
0
LINE
8
PERFIL
10
204.486305
20
148.500000
30
0.0
11
205.225000
21
147.220543
31
0.0
0
LINE
8
PERFIL
10
205.225000
20
147.220543
30
0.0
11
205.225000
21
145.743152
31
0.0
0
LINE
8
PERFIL
10
205.225000
20
145.743152
30
0.0
11
206.504457
21
145.004457
31
0.0
0
LINE
8
PERFIL
10
206.504457
20
145.004457
30
0.0
11
207.243152
21
143.725000
31
0.0
0
LINE
8
PERFIL
10
207.243152
20
143.725000
30
0.0
11
208.720543
21
143.725000
31
0.0
0
LINE
8
PERFIL
10
208.720543
20
143.725000
30
0.0
11
210.000000
21
142.986305
31
0.0
0
LINE
8
PERFIL
10
210.000000
20
142.986305
30
0.0
11
211.279457
21
143.725000
31
0.0
0
LINE
8
PERFIL
10
211.279457
20
143.725000
30
0.0
11
212.756848
21
143.725000
31
0.0
0
LINE
8
PERFIL
10
212.756848
20
143.725000
30
0.0
11
213.495543
21
145.004457
31
0.0
0
LINE
8
PERFIL
10
213.495543
20
145.004457
30
0.0
11
214.775000
21
145.743152
31
0.0
0
LINE
8
PERFIL
10
214.775000
20
145.743152
30
0.0
11
214.775000
21
147.220543
31
0.0
0
LINE
8
PERFIL
10
214.775000
20
147.220543
30
0.0
11
215.513695
21
148.500000
31
0.0
0
POINT
8
REF
10
210.0
20
148.5
30
0.0
0
ENDSEC
0
EOF
