0
SECTION
2
ENTITIES
0
LINE
8
PERFIL
10
215.499261
20
148.500000
30
0.0
11
214.762500
21
149.776108
31
0.0
0
LINE
8
PERFIL
10
214.762500
20
149.776108
30
0.0
11
214.762500
21
151.249631
31
0.0
0
LINE
8
PERFIL
10
214.762500
20
151.249631
30
0.0
11
213.486392
21
151.986392
31
0.0
0
LINE
8
PERFIL
10
213.486392
20
151.986392
30
0.0
11
212.749631
21
153.262500
31
0.0
0
LINE
8
PERFIL
10
212.749631
20
153.262500
30
0.0
11
211.276108
21
153.262500
31
0.0
0
LINE
8
PERFIL
10
211.276108
20
153.262500
30
0.0
11
210.000000
21
153.999261
31
0.0
0
LINE
8
PERFIL
10
210.000000
20
153.999261
30
0.0
11
208.723892
21
153.262500
31
0.0
0
LINE
8
PERFIL
10
208.723892
20
153.262500
30
0.0
11
207.250369
21
153.262500
31
0.0
0
LINE
8
PERFIL
10
207.250369
20
153.262500
30
0.0
11
206.513608
21
151.986392
31
0.0
0
LINE
8
PERFIL
10
206.513608
20
151.986392
30
0.0
11
205.237500
21
151.249631
31
0.0
0
LINE
8
PERFIL
10
205.237500
20
151.249631
30
0.0
11
205.237500
21
149.776108
31
0.0
0
LINE
8
PERFIL
10
205.237500
20
149.776108
30
0.0
11
204.500739
21
148.500000
31
0.0
0
LINE
8
PERFIL
10
204.500739
20
148.500000
30
0.0
11
205.237500
21
147.223892
31
0.0
0
LINE
8
PERFIL
10
205.237500
20
147.223892
30
0.0
11
205.237500
21
145.750369
31
0.0
0
LINE
8
PERFIL
10
205.237500
20
145.750369
30
0.0
11
206.513608
21
145.013608
31
0.0
0
LINE
8
PERFIL
10
206.513608
20
145.013608
30
0.0
11
207.250369
21
143.737500
31
0.0
0
LINE
8
PERFIL
10
207.250369
20
143.737500
30
0.0
11
208.723892
21
143.737500
31
0.0
0
LINE
8
PERFIL
10
208.723892
20
143.737500
30
0.0
11
210.000000
21
143.000739
31
0.0
0
LINE
8
PERFIL
10
210.000000
20
143.000739
30
0.0
11
211.276108
21
143.737500
31
0.0
0
LINE
8
PERFIL
10
211.276108
20
143.737500
30
0.0
11
212.749631
21
143.737500
31
0.0
0
LINE
8
PERFIL
10
212.749631
20
143.737500
30
0.0
11
213.486392
21
145.013608
31
0.0
0
LINE
8
PERFIL
10
213.486392
20
145.013608
30
0.0
11
214.762500
21
145.750369
31
0.0
0
LINE
8
PERFIL
10
214.762500
20
145.750369
30
0.0
11
214.762500
21
147.223892
31
0.0
0
LINE
8
PERFIL
10
214.762500
20
147.223892
30
0.0
11
215.499261
21
148.500000
31
0.0
0
POINT
8
REF
10
210.0
20
148.5
30
0.0
0
ENDSEC
0
EOF
